<svg xmlns="http://www.w3.org/2000/svg" viewBox="0 0 500 500"><defs><style>.cls-1{fill:#fff;}</style></defs><g id="Layer_3" data-name="Layer 3"><g id="Circle_background" data-name="Circle background"><circle cx="249.66" cy="250.25" r="232"/></g></g><g id="Layer_2" data-name="Layer 2"><path class="cls-1" d="M249.67,38.25c-47.62,0-75.84,70.36-84.67,153.75H304v58H162c0,106.08,29.18,212.25,87.68,212.25,116.89,0,212-95.11,212-212S366.56,38.25,249.67,38.25Z"/></g><g id="Layer_1" data-name="Layer 1"><path class="cls-1" d="M249.67,461.75c-18.76,0-35.3-10.95-49.17-32.53V74.5h-2C212.76,50.77,230,38.75,249.67,38.75c116.62,0,211.5,94.87,211.5,211.5S366.29,461.75,249.67,461.75Z"/><path d="M249.67,39.25c116.34,0,211,94.65,211,211s-94.66,211-211,211c-18.55,0-34.92-10.83-48.67-32.18V74h-1.61c14.07-23.06,31-34.75,50.28-34.75m0-1c-21.2,0-38.54,13.94-52,36.75H200V429h-.23c13.18,20.73,29.81,33.25,49.9,33.25,116.89,0,212-95.11,212-212s-95.11-212-212-212Z"/><path class="cls-1" d="M197.62,75H142V429h57.77C150.13,350.94,149.41,156.42,197.62,75Z"/><path d="M200,75h-2.38c-48.21,81.42-47.49,275.94,2.15,354H200Z"/><path d="M354,75H197.62c-9.29,15.68-16.76,35.56-22.41,58H354Z"/><path d="M317,188H193c-7.36,15.68-13.29,35.56-17.77,58H317Z"/><polygon points="324.56 184 295.11 133 354 133 324.56 184"/><polygon points="287.56 297 258.11 246 317 246 287.56 297"/></g></svg>